HIERARCHY
ROOT hip
{
  OFFSET 0 0 0
  CHANNELS 6 Xposition Yposition Zposition Zrotation Yrotation Xrotation
  JOINT abdomen
  {
    OFFSET 0 20.6881 -0.73152
    CHANNELS 3 Zrotation Xrotation Yrotation
    JOINT chest
    {
      OFFSET 0 11.7043 -0.48768
      CHANNELS 3 Zrotation Xrotation Yrotation
      JOINT neck
      {
        OFFSET 0 22.1894 -2.19456
        CHANNELS 3 Zrotation Xrotation Yrotation
        JOINT head
        {
          OFFSET -0.24384 7.07133 1.2192
          CHANNELS 3 Zrotation Xrotation Yrotation
          JOINT leftEye
          {
            OFFSET 4.14528 8.04674 8.04672
            CHANNELS 3 Zrotation Xrotation Yrotation
            End Site
            {
              OFFSET 1 0 0
            }
          }
          JOINT rightEye
          {
            OFFSET -3.6576 8.04674 8.04672
            CHANNELS 3 Zrotation Xrotation Yrotation
            End Site
            {
              OFFSET 1 0 0
            }
          }
        }
      }
      JOINT rCollar
      {
        OFFSET -2.68224 19.2634 -4.8768
        CHANNELS 3 Zrotation Xrotation Yrotation
        JOINT rShldr
        {
          OFFSET -8.77824 -1.95073 1.46304
          CHANNELS 3 Zrotation Xrotation Yrotation
          JOINT rForeArm
          {
            OFFSET -28.1742 -1.7115 0.48768
            CHANNELS 3 Zrotation Xrotation Yrotation
            JOINT rHand
            {
              OFFSET -22.5879 0.773209 7.07136
              CHANNELS 3 Zrotation Xrotation Yrotation
              JOINT rThumb1
              {
                OFFSET -1.2192 -0.487915 3.41376
                CHANNELS 3 Zrotation Xrotation Yrotation
                JOINT rThumb2
                {
                  OFFSET -3.37035 -0.52449 3.41376
                  CHANNELS 3 Zrotation Xrotation Yrotation
                  End Site
                  {
                    OFFSET -1.78271 -1.18214 1.43049
                  }
                }
              }
              JOINT rIndex1
              {
                OFFSET -7.75947 0.938293 5.60832
                CHANNELS 3 Zrotation Xrotation Yrotation
                JOINT rIndex2
                {
                  OFFSET -2.54057 -0.884171 1.56538
                  CHANNELS 3 Zrotation Xrotation Yrotation
                  End Site
                  {
                    OFFSET -1.62519 -0.234802 1.16502
                  }
                }
              }
              JOINT rMid1
              {
                OFFSET -8.24714 1.18213 3.41376
                CHANNELS 3 Zrotation Xrotation Yrotation
                JOINT rMid2
                {
                  OFFSET -3.10165 -0.590103 1.0647
                  CHANNELS 3 Zrotation Xrotation Yrotation
                  End Site
                  {
                    OFFSET -2.48547 -0.328903 0.83742
                  }
                }
              }
              JOINT rRing1
              {
                OFFSET -8.82822 0.546677 1.51678
                CHANNELS 3 Zrotation Xrotation Yrotation
                JOINT rRing2
                {
                  OFFSET -2.60934 -0.819778 -0.0198488
                  CHANNELS 3 Zrotation Xrotation Yrotation
                  End Site
                  {
                    OFFSET -2.33842 -0.294052 0.168128
                  }
                }
              }
              JOINT rPinky1
              {
                OFFSET -8.27202 -0.0477905 -0.4584
                CHANNELS 3 Zrotation Xrotation Yrotation
                JOINT rPinky2
                {
                  OFFSET -1.82734 -0.647385 -0.700984
                  CHANNELS 3 Zrotation Xrotation Yrotation
                  End Site
                  {
                    OFFSET -1.69225 -0.51767 -0.607171
                  }
                }
              }
            }
          }
        }
      }
      JOINT lCollar
      {
        OFFSET 2.68224 19.2634 -4.8768
        CHANNELS 3 Zrotation Xrotation Yrotation
        JOINT lShldr
        {
          OFFSET 8.77824 -1.95073 1.46304
          CHANNELS 3 Zrotation Xrotation Yrotation
          JOINT lForeArm
          {
            OFFSET 28.1742 -1.7115 0.48768
            CHANNELS 3 Zrotation Xrotation Yrotation
            JOINT lHand
            {
              OFFSET 22.5879 0.773209 7.07136
              CHANNELS 3 Zrotation Xrotation Yrotation
              JOINT lThumb1
              {
                OFFSET 1.2192 -0.487915 3.41376
                CHANNELS 3 Zrotation Xrotation Yrotation
                JOINT lThumb2
                {
                  OFFSET 3.37035 -0.52449 3.41376
                  CHANNELS 3 Zrotation Xrotation Yrotation
                  End Site
                  {
                    OFFSET 1.78271 -1.18214 1.43049
                  }
                }
              }
              JOINT lIndex1
              {
                OFFSET 7.75947 0.938293 5.60832
                CHANNELS 3 Zrotation Xrotation Yrotation
                JOINT lIndex2
                {
                  OFFSET 2.54057 -0.884171 1.56538
                  CHANNELS 3 Zrotation Xrotation Yrotation
                  End Site
                  {
                    OFFSET 1.62519 -0.234802 1.16502
                  }
                }
              }
              JOINT lMid1
              {
                OFFSET 8.24714 1.18213 3.41376
                CHANNELS 3 Zrotation Xrotation Yrotation
                JOINT lMid2
                {
                  OFFSET 3.10165 -0.590103 1.0647
                  CHANNELS 3 Zrotation Xrotation Yrotation
                  End Site
                  {
                    OFFSET 2.48547 -0.328903 0.83742
                  }
                }
              }
              JOINT lRing1
              {
                OFFSET 8.82822 0.546677 1.51678
                CHANNELS 3 Zrotation Xrotation Yrotation
                JOINT lRing2
                {
                  OFFSET 2.60934 -0.819778 -0.0198488
                  CHANNELS 3 Zrotation Xrotation Yrotation
                  End Site
                  {
                    OFFSET 2.33842 -0.294052 0.168128
                  }
                }
              }
              JOINT lPinky1
              {
                OFFSET 8.27202 -0.0477905 -0.4584
                CHANNELS 3 Zrotation Xrotation Yrotation
                JOINT lPinky2
                {
                  OFFSET 1.82734 -0.647385 -0.700984
                  CHANNELS 3 Zrotation Xrotation Yrotation
                  End Site
                  {
                    OFFSET 1.69225 -0.51767 -0.607171
                  }
                }
              }
            }
          }
        }
      }
    }
  }
  JOINT rButtock
  {
    OFFSET -8.77824 4.35084 1.2192
    CHANNELS 3 Zrotation Xrotation Yrotation
    JOINT rThigh
    {
      OFFSET 0 -1.70687 -2.19456
      CHANNELS 3 Zrotation Xrotation Yrotation
      JOINT rShin
      {
        OFFSET 0 -36.8199 0.73152
        CHANNELS 3 Zrotation Xrotation Yrotation
        JOINT rFoot
        {
          OFFSET 0.73152 -45.1104 -5.12064
          CHANNELS 3 Zrotation Xrotation Yrotation
          End Site
          {
            OFFSET -1.1221 -3.69964 12.103
          }
        }
      }
    }
  }
  JOINT lButtock
  {
    OFFSET 8.77824 4.35084 1.2192
    CHANNELS 3 Zrotation Xrotation Yrotation
    JOINT lThigh
    {
      OFFSET 0 -1.70687 -2.19456
      CHANNELS 3 Zrotation Xrotation Yrotation
      JOINT lShin
      {
        OFFSET 0 -36.8199 0.73152
        CHANNELS 3 Zrotation Xrotation Yrotation
        JOINT lFoot
        {
          OFFSET -0.73152 -45.1104 -5.12064
          CHANNELS 3 Zrotation Xrotation Yrotation
          End Site
          {
            OFFSET 1.1221 -3.69964 12.103
          }
        }
      }
    }
  }
}
MOTION
Frames:	4
Frame Time:	0.03333
0.1336991253937881 40.524560779723245 -0.020053522114543386 -0.9023000597953796 4.303600311279297 5.9828996658325195 -4.638970375061035 5.43317985534668 3.0971498489379883 2.247760057449341 -6.536159992218018 0.8636510372161865 -6.0760698318481445 10.526299476623535 -4.117310047149658 7.30859899520874 -20.776599884033203 -6.209178924560547 -0.0 0.0 -0.0 -0.0 0.0 -0.0 2.5444436054650188e-14 -3.0533323265580226e-13 -2.7988879660115207e-13 73.1587905883789 39.848899841308594 -0.9417349100112915 -17.223499298095703 -9.87554931640625 32.300697326660156 -0.00010325000039301813 -0.2901489734649658 -0.04077809676527977 6.355002080127292e-10 -6.680691000404693e-10 3.1808725098336765e-10 1.1042121661475335e-09 -1.1597319771183834e-09 5.499051769497498e-10 6.355002080127292e-10 -6.680691000404693e-10 3.1808089495655167e-10 7.7309088706970215 5.474880218505859 0.41731396317481995 6.355002080127292e-10 -6.680691000404693e-10 3.1808089495655167e-10 2.9055399894714355 0.9651829600334167 0.10290198773145676 6.355256876311444e-10 -6.680691000404693e-10 3.1808725098336765e-10 10.27859878540039 0.73180091381073 0.025912299752235413 6.355002080127292e-10 -6.680691000404693e-10 3.1809360701018363e-10 2.2216696739196777 -0.7334870100021362 -0.2089199721813202 2.5444436054650188e-14 -3.0533323265580226e-13 -2.8624991916734177e-13 -74.54659271240234 39.30350112915039 -8.946599960327148 12.915698051452637 -6.111889839172363 -23.396799087524414 1.0888795852661133 28.233097076416016 -4.327769756317139 2.2461585924560268e-09 2.9664142253693626e-09 1.0216513190997034e-09 3.902769218910862e-09 5.0844346510814376e-09 1.7138799268678895e-09 2.2461585924560268e-09 2.9664142253693626e-09 1.0216513190997034e-09 -7.7309088706970215 5.474880218505859 -0.41731396317481995 2.2461585924560268e-09 2.9664142253693626e-09 1.0216513190997034e-09 -2.9055399894714355 0.9651829600334167 -0.10290198773145676 2.2461585924560268e-09 2.9664142253693626e-09 1.0216513190997034e-09 -10.27859878540039 0.73180091381073 -0.025912299752235413 2.2461585924560268e-09 2.9664142253693626e-09 1.0216386625572227e-09 -2.2216696739196777 -0.7334870100021362 0.2089199721813202 -0.0 0.0 -0.0 -8.302249908447266 -25.52680015563965 5.922909736633301 -0.25199094414711 37.64849853515625 1.023959755897522 -2.517390012741089 -9.132630348205566 -13.22599983215332 -0.0 0.0 -0.0 7.564419746398926 -20.5596981048584 -3.9586899280548096 0.12159401923418045 34.40970230102539 -0.9379070401191711 1.733669638633728 -8.932439804077148 13.605098724365234
0.26137933334448754 40.54575827181238 -0.03896112991841837 -1.0124999284744263 4.212599754333496 6.019198894500732 -4.647329807281494 5.333179950714111 3.1869699954986572 2.2654199600219727 -6.5205302238464355 0.8916939496994019 -6.061419486999512 10.481301307678223 -4.071450233459473 7.391139507293701 -20.542098999023438 -6.113439083099365 -0.0 0.0 -0.0 -0.0 0.0 -0.0 2.5444436054650188e-14 -1.0177774421860075e-13 -8.269441717761311e-14 73.06169891357422 40.22849655151367 -0.6144939661026001 -17.35540008544922 -10.010199546813965 32.589595794677734 -0.0001820829784264788 -0.3808939754962921 -0.05353199690580368 4.2711029157871394e-10 -3.783587679273559e-11 -2.1226384538941545e-10 7.426212977890145e-10 -6.628275706077602e-11 -3.693959582662387e-10 4.2711029157871394e-10 -3.783587679273559e-11 -2.1227657132083522e-10 7.7309088706970215 5.474880218505859 0.41731396317481995 4.2711029157871394e-10 -3.783587679273559e-11 -2.1227020141623143e-10 2.9055399894714355 0.9651829600334167 0.10290198773145676 4.2711029157871394e-10 -3.783587679273559e-11 -2.1227020141623143e-10 10.27859878540039 0.73180091381073 0.025912299752235413 4.2711029157871394e-10 -3.783587679273559e-11 -2.1227020141623143e-10 2.2216696739196777 -0.7334870100021362 -0.2089199721813202 2.5444436054650188e-14 -1.0177774421860075e-13 -8.269441717761311e-14 -74.548583984375 38.863800048828125 -9.052449226379395 12.771899223327637 -6.005059719085693 -23.11400032043457 1.113629937171936 28.51919937133789 -4.379859447479248 4.5207129706348326e-10 6.921395678816111e-10 1.5714483880824304e-10 7.835613824447307e-10 1.188280585040502e-09 2.628092188317055e-10 4.5207129706348326e-10 6.921395678816111e-10 1.5715119483505902e-10 -7.7309088706970215 5.474880218505859 -0.41731396317481995 4.5207129706348326e-10 6.921395678816111e-10 1.5715119483505902e-10 -2.9055399894714355 0.9651829600334167 -0.10290198773145676 4.5207129706348326e-10 6.921395678816111e-10 1.5714483880824304e-10 -10.27859878540039 0.73180091381073 -0.025912299752235413 4.5207129706348326e-10 6.921395678816111e-10 1.5714483880824304e-10 -2.2216696739196777 -0.7334870100021362 0.2089199721813202 -0.0 0.0 -0.0 -8.376779556274414 -25.44110107421875 5.926419734954834 -0.2482309639453888 37.35459899902344 1.0112799406051636 -2.4445598125457764 -8.933009147644043 -13.097800254821777 -0.0 0.0 -0.0 7.441979885101318 -20.473800659179688 -4.088709831237793 0.11850396543741226 34.21139907836914 -0.9329809546470642 1.8038398027420044 -9.011959075927734 13.854498863220215
0.3813979500164971 40.56856427345105 -0.04812845440892544 -1.093500018119812 4.077399730682373 6.05259895324707 -4.6897501945495605 5.229769706726074 3.2979698181152344 2.2883596420288086 -6.50393009185791 0.9255849123001099 -6.057690620422363 10.444499969482422 -4.044119834899902 7.46614933013916 -20.30699920654297 -6.055520534515381 -0.0 0.0 -0.0 -0.0 0.0 -0.0 2.5444436054650188e-14 1.0177774421860075e-13 1.3994439830057603e-13 72.96089935302734 40.595096588134766 -0.28947097063064575 -17.470596313476562 -10.128600120544434 32.843101501464844 -0.00025560095673426986 -0.4565129578113556 -0.06416019797325134 2.04420605443012e-10 4.717907176043923e-10 -6.392850693259788e-10 3.552552141350418e-10 8.188273947773439e-10 -1.1094728469274173e-09 2.04420605443012e-10 4.717907176043923e-10 -6.39297836890762e-10 7.7309088706970215 5.474880218505859 0.41731396317481995 2.04420605443012e-10 4.717907176043923e-10 -6.39297836890762e-10 2.9055399894714355 0.9651829600334167 0.10290198773145676 2.04420605443012e-10 4.717907176043923e-10 -6.39297836890762e-10 10.27859878540039 0.73180091381073 0.025912299752235413 2.0439515358017246e-10 4.717907176043923e-10 -6.39297836890762e-10 2.2216696739196777 -0.7334870100021362 -0.2089199721813202 2.5444436054650188e-14 1.0177774421860075e-13 1.3994439830057603e-13 -74.56849670410156 38.383995056152344 -9.150389671325684 12.628498077392578 -5.8992600440979 -22.832998275756836 1.1386197805404663 28.803796768188477 -4.431959629058838 -1.387001624664208e-09 -1.5101272454742798e-09 -5.588743356987891e-10 -2.4096644679616475e-09 -2.5807018744217203e-09 -9.312218218759938e-10 -1.387001624664208e-09 -1.5101272454742798e-09 -5.588679519163975e-10 -7.7309088706970215 5.474880218505859 -0.41731396317481995 -1.387001624664208e-09 -1.5101272454742798e-09 -5.588679519163975e-10 -2.9055399894714355 0.9651829600334167 -0.10290198773145676 -1.387001624664208e-09 -1.5101272454742798e-09 -5.588743356987891e-10 -10.27859878540039 0.73180091381073 -0.025912299752235413 -1.387001624664208e-09 -1.5101272454742798e-09 -5.588806639700294e-10 -2.2216696739196777 -0.7334870100021362 0.2089199721813202 -0.0 0.0 -0.0 -8.468268394470215 -25.35809898376465 5.953089237213135 -0.24431894719600677 37.05400085449219 0.9993618726730347 -2.3827197551727295 -8.755549430847168 -12.993598937988281 -0.0 0.0 -0.0 7.312010765075684 -20.370399475097656 -4.203680038452148 0.11529400199651718 34.010498046875 -0.9282519817352295 1.8608700037002563 -9.063109397888184 14.073899269104004
0.4965475756252132 40.59182448266954 -0.05500394777680575 -1.167099952697754 3.889500141143799 6.085499286651611 -4.747039318084717 5.1121296882629395 3.4216597080230713 2.3156700134277344 -6.498649597167969 0.9635369777679443 -6.04387903213501 10.448400497436523 -4.030089378356934 7.4639892578125 -20.098400115966797 -6.040950298309326 -0.0 0.0 -0.0 -0.0 0.0 -0.0 -9.103680887231371e-31 7.633330816395056e-14 1.208610712595884e-13 72.85409545898438 40.97189712524414 0.04094439744949341 -17.55259895324707 -10.21359920501709 33.024295806884766 -0.0003463199536781758 -0.5301769971847534 -0.07451369613409042 2.1169771491358347e-10 6.564664610519966e-12 -2.61021759762059e-10 3.6639988265640966e-10 1.2951218222867489e-11 -4.530763542121008e-10 2.1169771491358347e-10 6.564664610519966e-12 -2.6102811578887497e-10 7.7309088706970215 5.474880218505859 0.41731396317481995 2.1169771491358347e-10 6.564664610519966e-12 -2.6102811578887497e-10 2.9055399894714355 0.9651829600334167 0.10290198773145676 2.1169771491358347e-10 6.564664610519966e-12 -2.6102811578887497e-10 10.27859878540039 0.73180091381073 0.025912299752235413 2.1169771491358347e-10 6.564664610519966e-12 -2.61021759762059e-10 2.2216696739196777 -0.7334870100021362 -0.2089199721813202 -9.931289095521024e-31 7.633330816395056e-14 1.208610712595884e-13 -74.631591796875 37.870399475097656 -9.180978775024414 12.502299308776855 -5.8072004318237305 -22.586198806762695 1.1654099225997925 29.10479736328125 -4.487349510192871 -1.0063528899095786e-09 -8.706577125927595e-10 -1.2474134225559652e-10 -1.7413662734000468e-09 -1.4803064329882432e-09 -1.912149327765178e-10 -1.0063528899095786e-09 -8.706831367000234e-10 -1.2474134225559652e-10 -7.7309088706970215 5.474880218505859 -0.41731396317481995 -1.0063528899095786e-09 -8.706831367000234e-10 -1.247477121602003e-10 -2.9055399894714355 0.9651829600334167 -0.10290198773145676 -1.0063528899095786e-09 -8.706831367000234e-10 -1.247477121602003e-10 -10.27859878540039 0.73180091381073 -0.025912299752235413 -1.0063528899095786e-09 -8.706577125927595e-10 -1.247540681870163e-10 -2.2216696739196777 -0.7334870100021362 0.2089199721813202 -0.0 0.0 -0.0 -8.551379203796387 -25.283998489379883 6.024189472198486 -0.2403859794139862 36.74490737915039 0.9874219298362732 -2.32030987739563 -8.601439476013184 -12.859600067138672 -0.0 0.0 -0.0 7.190959453582764 -20.235599517822266 -4.2789201736450195 0.11163101345300674 33.79209899902344 -0.9234679937362671 1.9103798866271973 -9.079489707946777 14.299399375915527
